<svg xmlns="http://www.w3.org/2000/svg" viewBox="0 0 589.9 162.1" >
<style type="text/css">
	.st0{fill:#DA8A27;}
	.st1{fill:#2D98D5;}
	.st2{fill:#47AD48;}
</style>
<g id="Layer_1">
	<g>
		<path class="st0" d="M572.5,10.6c0-5.5,3.9-9.6,9.2-9.6c5.2,0,9.2,4,9.2,9.6c0,5.4-4,9.4-9.2,9.4C576.4,20,572.5,16,572.5,10.6z"
			/>
		<path class="st1" d="M248,80.4c0-5.5,3.9-9.6,9.2-9.6c5.2,0,9.2,4,9.2,9.6c0,5.4-4,9.4-9.2,9.4C251.9,89.8,248,85.8,248,80.4z"/>
		<path class="st2" d="M33.6,80.4c0-5.5,3.9-9.6,9.2-9.6c5.2,0,9.2,4,9.2,9.6c0,5.4-4,9.4-9.2,9.4C37.4,89.8,33.6,85.8,33.6,80.4z"
			/>
		<g>
			<path d="M11,152.6c-2.2-1.5-2.7-3.7-1.3-6.2l1.2-2c1.3-2.9,3.4-3.2,6-1.3c8.2,5.4,17,7.4,26.5,7.4c18.1,0,30.6-11.1,30.6-30.2
				v-14.4c-7.6,12.8-19.5,18.3-32.9,18.3c-25.3,0-41.8-19.6-41.8-43.6s16.1-43.8,41.8-43.8c13.6,0,25.3,5.9,32.9,18.5V43.2
				c0-2.7,1.5-4.5,4.4-4.5h3.9c2.9,0,4.5,1.7,4.5,4.5v78c0,26.9-19.6,40.5-43.3,40.5C29.3,161.7,19.4,158.3,11,152.6z M74.2,80.4
				C74.2,61.9,61.4,48,42.5,48c-19.3,0-30.4,14.8-30.4,32.4s11.2,32.2,30.6,32.2C61.1,112.7,74.2,99.2,74.2,80.4z"/>
			<path d="M107.1,80.4c0-24,19.8-43.8,43.8-43.8c24.3,0,44.1,20,44.1,43.8c0,24.2-19.8,43.6-44.1,43.6
				C126.9,124.1,107.1,104.8,107.1,80.4z M182.1,80.6c0-17.8-13.9-32.6-31.2-32.6c-17,0-30.9,14.8-30.9,32.6s13.9,32.1,30.9,32.1
				C168.2,112.7,182.1,98.2,182.1,80.6z"/>
			<path d="M225.3,152.6c-2.2-1.5-2.7-3.7-1.3-6.2l1.2-2c1.3-2.9,3.4-3.2,6-1.3c8.2,5.4,17,7.4,26.5,7.4c18.1,0,30.6-11.1,30.6-30.2
				v-14.4c-7.6,12.8-19.5,18.3-32.9,18.3c-25.3,0-41.8-19.6-41.8-43.6s16.1-43.8,41.8-43.8c13.6,0,25.3,5.9,32.9,18.5V43.2
				c0-2.7,1.5-4.5,4.4-4.5h3.9c2.9,0,4.5,1.7,4.5,4.5v78c0,26.9-19.6,40.5-43.3,40.5C243.6,161.7,233.7,158.3,225.3,152.6z
				 M288.4,80.4c0-18.5-12.8-32.4-31.7-32.4c-19.3,0-30.4,14.8-30.4,32.4s11.2,32.2,30.6,32.2C275.3,112.7,288.4,99.2,288.4,80.4z"
				/>
			<path d="M321.7,80.4c0-24,16.1-43.8,41.8-43.8c13.6,0,25.3,5.9,32.9,18.5V43c0-2.7,1.5-4.5,4.4-4.5h3.9c2.9,0,4.5,1.7,4.5,4.5
				v74.7c0,2.9-1.7,4.5-4.5,4.5h-3.9c-2.9,0-4.4-1.7-4.4-4.5v-11.9c-7.6,12.8-19.5,18.3-32.9,18.3
				C338.1,124.1,321.7,104.5,321.7,80.4z M396.6,80.4c0-18.5-12.8-32.4-31.7-32.4c-19.3,0-30.4,14.8-30.4,32.4s11.2,32.2,30.6,32.2
				C383.5,112.7,396.6,99.2,396.6,80.4z"/>
			<path d="M457.3,118.6l-28.2-74.9c-1.2-3.2,0.3-5.2,3.7-5.2h3.9c2.7,0,4.4,1,5.2,3.7l23.3,63l20-60.1c0.8-2.3,2.5-3.7,5-3.7h3.4
				c2.5,0,4.4,1.3,5,3.7l20.1,60.1l23.3-63c0.8-2.7,2.5-3.7,5-3.7h4c3.4,0,4.9,2,3.7,5.2l-28.2,74.9c-0.8,2.7-2.7,3.7-5.2,3.7h-4.5
				c-2.5,0-4.4-1.2-5-3.7l-20-59.1L472,118.6c-0.8,2.5-2.5,3.7-5,3.7h-4.7C459.9,122.2,458.2,121.1,457.3,118.6z"/>
			<path d="M575.4,117.7V43c0-2.7,1.7-4.5,4.5-4.5h3.9c2.7,0,4.4,1.7,4.4,4.5v74.7c0,2.9-1.7,4.5-4.4,4.5h-3.9
				C577.1,122.2,575.4,120.6,575.4,117.7z"/>
		</g>
	</g>
</g>
<g id="Layer_2">
</g>
</svg>
