<?xml version="1.0" encoding="UTF-8"?>
<svg width="298px" height="61px" viewBox="0 0 298 61" version="1.1" xmlns="http://www.w3.org/2000/svg" xmlns:xlink="http://www.w3.org/1999/xlink">
    <!-- Generator: Sketch 49 (51002) - http://www.bohemiancoding.com/sketch -->
    <title>Stylistic Elements/Logo</title>
    <desc>Created with Sketch.</desc>
    <defs>
        <polygon id="path-1" points="0 59.4680851 297.991554 59.4680851 297.991554 0.0860871327 0 0.0860871327"></polygon>
    </defs>
    <g id="Symbols" stroke="none" stroke-width="1" fill="none" fill-rule="evenodd">
        <g id="Navigation/Complete-Header-Logged-In/1920" transform="translate(-18.000000, -43.000000)">
            <g id="Header---Middle-Copy" transform="translate(0.000000, 31.000000)">
                <g id="Stylistic-Elements/Logo" transform="translate(18.000000, 21.000000)">
                    <polygon id="Fill-1" fill="#FFFFFF" points="122.11196 9.14893617 113.382263 9.14893617 113.382263 36.5957447 130.755352 36.5957447 130.755352 28.8755397 122.11196 28.8755397"></polygon>
                    <path d="M115.566411,32.6648606 L128.571782,32.6648606 L128.571782,29.8667469 L119.650293,29.8667469 L119.650293,10.3351394 L115.566411,10.3351394 L115.566411,32.6648606 Z M133.498471,37.5106383 L110.639144,37.5106383 L110.639144,5.4893617 L124.576982,5.4893617 L124.576982,25.0209692 L133.498471,25.0209692 L133.498471,37.5106383 Z" id="Fill-2" fill="#FFFFFF"></path>
                    <polygon id="Fill-3" fill="#FFFFFF" points="135.327217 36.5957447 144.470948 36.5957447 144.470948 9.14893617 135.327217 9.14893617"></polygon>
                    <path d="M138.3462,32.6648606 L142.366338,32.6648606 L142.366338,10.3351394 L138.3462,10.3351394 L138.3462,32.6648606 Z M133.498471,37.5106383 L147.214067,37.5106383 L147.214067,5.4893617 L133.498471,5.4893617 L133.498471,37.5106383 Z" id="Fill-4" fill="#FFFFFF"></path>
                    <g id="Group-66" stroke-width="1" transform="translate(0.000000, -8.234043)">
                        <path d="M178.527449,28.6734717 C178.454344,32.9370503 178.2798,36.3533502 175.29101,39.5748213 C172.547602,42.556721 168.11202,44.4087271 163.71384,44.4087271 C154.732735,44.4087271 148.699052,38.8657352 148.699052,30.6166622 C148.699052,22.1404778 154.762771,16.4457007 163.790912,16.4457007 C168.43844,16.4457007 174.343483,18.5927818 176.729301,22.5896034 L168.443541,25.6304049 C167.476179,24.3306024 165.954016,23.5971627 164.170602,23.5971627 C159.859128,23.5971627 157.603085,27.3385548 157.603085,31.0346379 C157.603085,34.3824079 159.757688,37.9391658 163.752376,37.9391658 C165.731302,37.9391658 168.132421,36.9746501 168.731426,34.8564535 L169.015911,33.850027 L164.051028,33.850027 L164.051028,28.6734717 L178.527449,28.6734717 Z" id="Fill-5" fill="#FFFFFF"></path>
                        <path d="M162.71956,26.2620126 L165.485636,26.2620126 C165.030007,26.0649183 164.55851,26.0088484 164.170886,26.0088484 C163.621751,26.0088484 163.14062,26.1011656 162.71956,26.2620126 Z M161.637725,26.9212588 C160.403446,28.0245333 160.015821,29.874274 160.015821,31.0347512 C160.015821,32.2643246 160.477117,33.9022456 161.637725,34.8220186 L161.637725,26.9212588 Z M163.790628,18.8579528 C156.088572,18.8579528 151.111788,23.4738089 151.111788,30.6167755 C151.111788,37.5292324 156.058536,41.9967015 163.71469,41.9967015 C167.458328,41.9967015 171.2133,40.4426022 173.51468,37.9421108 C175.374032,35.9371868 175.87273,33.8727947 176.034807,31.0857238 L166.463765,31.0857238 L166.463765,31.4385678 L172.205597,31.4385678 L171.05349,35.5129812 C170.115597,38.8363976 166.610541,40.3508515 163.752092,40.3508515 C159.601562,40.3508515 155.189214,37.0857704 155.189214,31.0347512 C155.189214,26.2597471 158.337815,21.1851372 164.170886,21.1851372 C166.017203,21.1851372 167.724112,21.7707562 169.063797,22.833819 L172.520117,21.5646002 C170.096329,19.7941504 166.599207,18.8579528 163.790628,18.8579528 Z M163.71469,46.8204128 C153.452271,46.8204128 146.285181,40.1571554 146.285181,30.6167755 C146.285181,20.8532486 153.482873,14.0342415 163.790628,14.0342415 C168.917021,14.0342415 175.801325,16.324046 178.802583,21.3539133 L180.293011,23.8521392 L173.724927,26.2620126 L180.982122,26.2620126 L180.940186,28.7149295 C180.871615,32.6873976 180.79511,37.1899812 177.061106,41.2134219 C173.883037,44.6693672 168.765711,46.8204128 163.71469,46.8204128 Z" id="Fill-7" fill="#FFFFFF"></path>
                        <polygon id="Fill-9" fill="#FFFFFF" points="191.267209 16.9009431 182.817672 16.9009431 182.817672 43.9526918 191.267209 43.9526918 191.267209 34.003398 199.233349 34.003398 199.233349 43.9526918 207.681753 43.9526918 207.681753 16.9009431 199.233349 16.9009431 199.233349 26.5466665 191.267209 26.5466665"></polygon>
                        <polygon id="Fill-11" fill="#FFFFFF" points="211.954068 24.5852957 217.691367 24.3196716 217.691367 43.9526352 226.519461 43.9526352 226.519461 24.3196716 232.256193 24.5852957 232.256193 16.9008864 211.954068 16.9008864"></polygon>
                        <path d="M220.104273,41.5413459 L224.106328,41.5413459 L224.106328,21.7939771 L229.843626,22.0596012 L229.843626,19.3133084 L214.366975,19.3133084 L214.366975,22.0596012 L220.104273,21.7939771 L220.104273,41.5413459 Z M228.932935,46.3650571 L215.277666,46.3650571 L215.277666,26.8470652 L209.540368,27.1126894 L209.540368,14.4895972 L234.669667,14.4895972 L234.669667,27.1126894 L228.932935,26.8470652 L228.932935,46.3650571 Z" id="Fill-13" fill="#FFFFFF"></path>
                        <path d="M56.4069245,30.427044 C56.4069245,22.6707066 62.6990247,16.3829477 70.4594517,16.3829477 C78.2204453,16.3829477 84.5114122,22.6707066 84.5114122,30.427044 C84.5114122,38.1833814 78.2204453,44.4711402 70.4594517,44.4711402 C62.6990247,44.4711402 56.4069245,38.1833814 56.4069245,30.427044" id="Fill-15" fill="#FFFFFF"></path>
                        <path d="M70.4593384,18.7947467 C64.0419968,18.7947467 58.820398,24.0126464 58.820398,30.4267042 C58.820398,36.8407619 64.0419968,42.0597943 70.4593384,42.0597943 C76.8778133,42.0597943 82.0982787,36.8407619 82.0982787,30.4267042 C82.0982787,24.0126464 76.8778133,18.7947467 70.4593384,18.7947467 M70.4593384,46.8835056 C61.3801942,46.8835056 53.9932243,39.5009676 53.9932243,30.4267042 C53.9932243,21.3535735 61.3801942,13.9710355 70.4593384,13.9710355 C79.5384825,13.9710355 86.9260191,21.3535735 86.9260191,30.4267042 C86.9260191,39.5009676 79.5384825,46.8835056 70.4593384,46.8835056" id="Fill-17" fill="#FFFFFF"></path>
                        <path d="M17.7490723,27.4660431 L15.1263721,26.874194 C14.2729179,26.6884271 12.6850169,26.3440785 12.6850169,24.7576966 C12.6850169,23.1616864 14.2083137,22.4469367 15.7180098,22.4469367 C17.5495929,22.4469367 19.4049776,23.0257594 21.3691692,24.2122893 L23.5912106,18.4183987 C21.1067859,17.0330755 18.4495168,16.3585375 15.4896286,16.3585375 C9.85036988,16.3585375 3.85692199,19.7940937 3.85692199,26.1617097 C3.85692199,31.2210279 8.63479256,32.6137138 10.6890899,32.9773186 L13.0686746,33.4128516 C14.0060009,33.5850258 15.7497451,33.9067199 15.7497451,35.7315405 C15.7497451,37.4493186 13.9606647,38.2320319 12.2990923,38.2320319 C10.145622,38.2320319 7.89921244,37.3722933 5.61766732,35.6754706 L3.08337279,42.0974574 C6.08519706,43.4776834 9.85263669,44.3204311 13.096443,44.3204311 C18.6994327,44.3204311 24.7297163,41.3719468 24.7297163,34.8967219 C24.7297163,30.9486074 22.4464711,28.5177786 17.7490723,27.4660431" id="Fill-19" fill="#FFFFFF"></path>
                        <path d="M9.55347433,35.210147 C10.5049682,35.6162291 11.4224599,35.820686 12.2985823,35.820686 C12.4357243,35.820686 12.5643658,35.8104915 12.6816733,35.7946333 C12.6641055,35.7912352 12.6482378,35.7884033 12.6335036,35.7850052 L10.2539189,35.3494722 C10.0159037,35.306995 9.78242223,35.2611197 9.55347433,35.210147 Z M6.21502865,40.7350153 C8.45747129,41.4752514 10.941896,41.9090852 13.0970664,41.9090852 C16.5210842,41.9090852 22.3167528,40.4314449 22.3167528,34.8969484 C22.3167528,32.9497934 21.7115143,30.8248005 17.2215287,29.820073 L14.5948617,29.2270913 C11.0240679,28.4489089 10.2714867,26.3658268 10.2714867,24.7573567 C10.2714867,22.0206921 12.562099,20.0350244 15.7180664,20.0350244 C17.1688254,20.0350244 18.6059835,20.3119758 20.0629761,20.8772058 L20.5339061,19.6498978 C18.9613061,19.0603142 17.2957668,18.7703365 15.490252,18.7703365 C11.0206677,18.7703365 6.27113222,21.3608795 6.27113222,26.1613699 C6.27113222,29.1245796 8.90176621,30.211996 11.10964,30.6016536 L13.5045256,31.0411511 C17.3552706,31.7457063 18.1639553,33.9811399 18.1639553,35.7323334 C18.1639553,38.5788724 15.6970984,40.6443973 12.2985823,40.6443973 C10.4823001,40.6443973 8.64164967,40.1754489 6.80213266,39.2483132 L6.21502865,40.7350153 Z M13.0970664,46.7327965 C9.5251392,46.7327965 5.40407707,45.8192534 2.07469863,44.2895077 L0,43.3351865 L4.23043575,32.6167721 C2.43228804,30.9901784 1.44395851,28.7762666 1.44395851,26.1613699 C1.44395851,18.227761 8.68131886,13.8367509 15.490252,13.9466252 C18.9907746,14.0038279 22.7327126,15.131456 24.7666087,16.3111896 L26.5936582,17.3289434 L22.9117907,26.9310568 C26.3040731,29.0787043 27.1439265,32.2678927 27.1439265,34.8969484 C27.1439265,42.6674449 20.076577,46.7327965 13.0970664,46.7327965 Z" id="Fill-21" fill="#FFFFFF"></path>
                        <path d="M39.4144004,29.6117648 L37.5969848,29.6117648 L37.5969848,23.0549837 L39.3764313,23.0549837 C40.7614527,23.0549837 44.0058257,23.0549837 44.0058257,26.1994295 C44.0058257,29.6117648 40.5500726,29.6117648 39.4144004,29.6117648 M41.5429357,16.8136666 L29.1485807,16.8136666 L29.1485807,43.8654153 L37.5969848,43.8654153 L37.5969848,35.244242 L43.7083068,35.244242 C49.0557136,35.244242 52.3777249,31.9100647 52.3777249,26.5415126 C52.3777249,20.3596635 48.4283737,16.8136666 41.5429357,16.8136666" id="Fill-23" fill="#FFFFFF"></path>
                        <path d="M40.0109683,25.4768639 L40.0109683,27.1850139 C41.5915022,27.104024 41.5915022,26.6820838 41.5915022,26.1995428 C41.5915022,25.8331061 41.5926356,25.5357657 40.0109683,25.4768639 Z M39.414797,32.0228842 L35.1837946,32.0228842 L35.1837946,20.6423918 L39.3762613,20.6423918 C45.5045844,20.6423918 46.4198093,24.1243898 46.4198093,26.1995428 C46.4198093,27.9501699 45.7363658,32.0228842 39.414797,32.0228842 Z M31.5619976,41.4539561 L35.1837946,41.4539561 L35.1837946,32.8322165 L43.7075701,32.8322165 C47.7424934,32.8322165 49.9645347,30.598482 49.9645347,26.5421922 C49.9645347,21.687331 47.1310212,19.2253523 41.5427657,19.2253523 L31.5619976,19.2253523 L31.5619976,41.4539561 Z M40.0109683,46.277101 L26.7348238,46.277101 L26.7348238,14.401641 L41.5427657,14.401641 C49.7146188,14.401641 54.7917085,19.0537444 54.7917085,26.5421922 C54.7917085,33.2938021 50.440565,37.6559278 43.7075701,37.6559278 L40.0109683,37.6559278 L40.0109683,46.277101 Z" id="Fill-25" fill="#FFFFFF"></path>
                        <polygon id="Fill-27" fill="#FFFFFF" points="94.0328678 43.8654153 102.861529 43.8654153 102.861529 24.2324518 108.598828 24.4980759 108.598828 16.8136666 88.2955695 16.8136666 88.2955695 24.4980759 94.0328678 24.2324518"></polygon>
                        <path d="M96.4463413,41.4539561 L100.447262,41.4539561 L100.447262,21.7065873 L106.185127,21.9716451 L106.185127,19.2259186 L90.709043,19.2259186 L90.709043,21.9716451 L96.4463413,21.7065873 L96.4463413,41.4539561 Z M105.275003,46.2776674 L91.6191676,46.2776674 L91.6191676,26.7596755 L85.8813026,27.0252996 L85.8813026,14.4022074 L111.012301,14.4022074 L111.012301,27.0252996 L105.275003,26.7596755 L105.275003,46.2776674 Z" id="Fill-29" fill="#FFFFFF"></path>
                        <polygon id="Fill-31" fill="#C20017" points="122.141096 16.8260133 113.313568 16.8260133 113.313568 43.877762 130.881352 43.877762 130.881352 36.2686789 122.141096 36.2686789"></polygon>
                        <mask id="mask-2" fill="white">
                            <use xlink:href="#path-1"></use>
                        </mask>
                        <g id="Clip-34"></g>
                        <polygon id="Fill-33" fill="#C20017" mask="url(#mask-2)" points="135.471984 43.8778186 144.301212 43.8778186 144.301212 16.8260699 135.471984 16.8260699"></polygon>
                        <path d="M178.527449,28.5982588 L164.051028,28.5982588 L164.051028,33.774814 L169.015911,33.774814 L168.731426,34.7812405 C168.132421,36.8994371 165.731302,37.8639528 163.752376,37.8639528 C159.757688,37.8639528 157.603085,34.3071949 157.603085,30.9594249 C157.603085,27.2633418 159.859128,23.5219497 164.170602,23.5219497 C165.954016,23.5219497 167.476179,24.2553895 168.443541,25.5551919 L176.729301,22.5143905 C174.343483,18.5175688 168.43844,16.3704877 163.790912,16.3704877 C154.762771,16.3704877 148.699052,22.0652648 148.699052,30.5414492 C148.699052,38.7905222 154.732735,44.3335141 163.71384,44.3335141 C168.11202,44.3335141 172.547602,42.481508 175.29101,39.4996083 C178.2798,36.2781372 178.454344,32.8618373 178.527449,28.5982588" id="Fill-35" fill="#C20017" mask="url(#mask-2)"></path>
                        <polygon id="Fill-36" fill="#C20017" mask="url(#mask-2)" points="211.954068 24.510366 217.691367 24.2447418 217.691367 43.8777054 226.519461 43.8777054 226.519461 24.2447418 232.256193 24.510366 232.256193 16.8259566 211.954068 16.8259566"></polygon>
                        <path d="M56.4069245,30.351831 C56.4069245,22.5954936 62.6990247,16.3077348 70.4594517,16.3077348 C78.2204453,16.3077348 84.5114122,22.5954936 84.5114122,30.351831 C84.5114122,38.1081684 78.2204453,44.3959273 70.4594517,44.3959273 C62.6990247,44.3959273 56.4069245,38.1081684 56.4069245,30.351831" id="Fill-37" fill="#C20017" mask="url(#mask-2)"></path>
                        <path d="M17.7490723,27.3908301 L15.1263721,26.7989811 C14.2729179,26.6132141 12.6850169,26.2688656 12.6850169,24.6824836 C12.6850169,23.0864735 14.2083137,22.3717237 15.7180098,22.3717237 C17.5495929,22.3717237 19.4049776,22.9505464 21.3691692,24.1370763 L23.5912106,18.3431857 C21.1067859,16.9578625 18.4495168,16.2833245 15.4896286,16.2833245 C9.85036988,16.2833245 3.85692199,19.7188807 3.85692199,26.0864968 C3.85692199,31.1458149 8.63479256,32.5385008 10.6890899,32.9021057 L13.0686746,33.3376386 C14.0060009,33.5098129 15.7497451,33.8315069 15.7497451,35.6563276 C15.7497451,37.3741057 13.9606647,38.1568189 12.2990923,38.1568189 C10.145622,38.1568189 7.89921244,37.2970803 5.61766732,35.6002576 L3.08337279,42.0222445 C6.08519706,43.4024704 9.85263669,44.2452181 13.096443,44.2452181 C18.6994327,44.2452181 24.7297163,41.2967338 24.7297163,34.8215089 C24.7297163,30.8733944 22.4464711,28.4425657 17.7490723,27.3908301" id="Fill-38" fill="#C20017" mask="url(#mask-2)"></path>
                        <path d="M39.4144004,29.5365519 L37.5969848,29.5365519 L37.5969848,22.9797707 L39.3764313,22.9797707 C40.7614527,22.9797707 44.0058257,22.9797707 44.0058257,26.1242165 C44.0058257,29.5365519 40.5500726,29.5365519 39.4144004,29.5365519 M41.5429357,16.7384536 L29.1485807,16.7384536 L29.1485807,43.7902023 L37.5969848,43.7902023 L37.5969848,35.1690291 L43.7083068,35.1690291 C49.0557136,35.1690291 52.3777249,31.8348518 52.3777249,26.4662996 C52.3777249,20.2844506 48.4283737,16.7384536 41.5429357,16.7384536" id="Fill-39" fill="#C20017" mask="url(#mask-2)"></path>
                        <polygon id="Fill-40" fill="#C20017" mask="url(#mask-2)" points="94.0328678 43.7904855 102.861529 43.7904855 102.861529 24.157522 108.598828 24.4231461 108.598828 16.7387368 88.2955695 16.7387368 88.2955695 24.4231461 94.0328678 24.157522"></polygon>
                        <path d="M38.5062593,23.5559881 L38.5062593,28.4187784 C38.5062593,28.4187784 42.9832107,28.0302536 42.9832107,25.9879496 C42.9832107,23.9450793 38.5062593,23.5559881 38.5062593,23.5559881" id="Fill-41" fill="#FFFFFF" mask="url(#mask-2)"></path>
                        <path d="M7.75266312,33.4767373 C7.75266312,33.4767373 14.2210079,34.2549197 13.9064879,35.2273644 C13.5919679,36.1998092 13.5284972,37.9510027 10.8355259,36.5889004 C8.14198789,35.2273644 7.75266312,33.4767373 7.75266312,33.4767373" id="Fill-42" fill="#FFFFFF" mask="url(#mask-2)"></path>
                        <path d="M166.970907,25.9876665 C166.970907,25.9876665 164.635525,23.555705 162.687768,24.3344537 C160.742278,25.1126361 159.380491,28.041864 158.600708,30.4268174 C157.821492,32.8123372 163.564457,39.3385348 163.612627,37.0883757 C163.661363,34.838783 163.612627,28.419628 163.612627,28.419628 L165.802366,27.0575256 L166.970907,25.9876665 Z" id="Fill-43" fill="#FFFFFF" mask="url(#mask-2)"></path>
                        <path d="M205.267656,41.5413459 L201.646426,41.5413459 L201.646426,31.5920521 L188.853679,31.5920521 L188.853679,41.5413459 L185.231882,41.5413459 L185.231882,19.3133084 L188.853679,19.3133084 L188.853679,28.9595982 L201.646426,28.9595982 L201.646426,19.3133084 L205.267656,19.3133084 L205.267656,41.5413459 Z M196.878756,14.4895972 L196.878756,24.1800632 L193.867298,24.1800632 L193.867298,14.4895972 L193.680286,14.4895972 L180.405275,14.4895972 L180.405275,46.3650571 L193.680286,46.3650571 L193.867298,46.3650571 L193.867298,36.1127593 L196.878756,36.1127593 L196.878756,46.3650571 L210.094263,46.3650571 L210.094263,14.4895972 L196.878756,14.4895972 Z" id="Fill-44" fill="#FFFFFF" mask="url(#mask-2)"></path>
                        <polygon id="Fill-45" fill="#C20017" mask="url(#mask-2)" points="191.267209 16.8260133 182.817672 16.8260133 182.817672 43.877762 191.267209 43.877762 191.267209 33.9284682 199.233349 33.9284682 199.233349 43.877762 207.681753 43.877762 207.681753 16.8260133 199.233349 16.8260133 199.233349 26.4717367 191.267209 26.4717367"></polygon>
                        <path d="M267.482604,1.68662817 C251.542956,1.68662817 238.575098,14.6467062 238.575098,30.5767903 C238.575098,46.5074407 251.542956,59.4680851 267.482604,59.4680851 C283.422251,59.4680851 296.390676,46.5074407 296.390676,30.5767903 C296.390676,14.6467062 283.422251,1.68662817 267.482604,1.68662817" id="Fill-46" fill="#000000" mask="url(#mask-2)"></path>
                        <path d="M269.084219,0.0862570415 C253.144572,0.0862570415 240.176147,13.0469014 240.176147,28.9769855 C240.176147,44.9070696 253.144572,57.8671476 269.084219,57.8671476 C285.023866,57.8671476 297.991724,44.9070696 297.991724,28.9769855 C297.991724,13.0469014 285.023866,0.0862570415 269.084219,0.0862570415" id="Fill-47" fill="#FFFFFF" mask="url(#mask-2)"></path>
                        <path d="M269.084219,1.89261429 C254.117034,1.89261429 241.984495,14.01844 241.984495,28.9766457 C241.984495,43.9348514 254.117034,56.0606771 269.084219,56.0606771 C284.050838,56.0606771 296.183376,43.9348514 296.183376,28.9766457 C296.183376,14.01844 284.050838,1.89261429 269.084219,1.89261429" id="Fill-48" fill="#C20017" mask="url(#mask-2)"></path>
                        <path d="M268.795314,22.6331567 C268.812315,22.4779734 271.027556,22.1676066 271.098394,22.3686653 C271.169798,22.5691578 271.493385,27.0417241 271.311474,28.4089237 C271.128996,29.7761233 269.945154,30.8816633 268.243345,31.0634658 C266.54097,31.2441355 265.01144,30.1884354 264.9117,30.0411811 C264.812527,29.8950595 266.147112,28.45933 266.295021,28.5918589 C266.444064,28.7243877 267.308853,29.1570889 267.694777,29.2250524 C268.32325,29.3354931 268.879186,28.9820828 269.124568,28.529559 C269.36995,28.0770352 269.161404,27.141404 269.135902,27.0960949 C269.110401,27.0513523 268.086935,28.2356167 266.568739,27.9711253 C265.525439,27.7898893 264.130784,26.2839308 265.080578,24.3662266 C266.10801,22.2922064 268.842917,23.4917626 268.842917,23.4917626 C268.842917,23.4917626 268.778313,22.7889065 268.795314,22.6331567 Z M268.88542,25.0243401 C268.88542,25.0243401 267.173977,24.6222226 267.239715,25.3907768 C267.324154,26.3796461 268.94889,25.6280828 268.94889,25.6280828 L268.88542,25.0243401 Z" id="Fill-49" fill="#FFFFFF" mask="url(#mask-2)"></path>
                        <path d="M280.324767,29.9569063 C280.202926,30.0917006 277.559258,30.086037 277.551891,29.8555274 C277.54509,29.6250177 278.299938,24.4490289 278.284637,24.2762882 C278.271603,24.1029813 280.462476,24.3097036 280.643821,24.5532396 C280.826299,24.7973419 280.447175,29.8232447 280.324767,29.9569063" id="Fill-50" fill="#FFFFFF" mask="url(#mask-2)"></path>
                        <path d="M279.788496,23.7326933 C281.012008,23.8131168 281.195619,22.9222283 281.227355,22.7455231 C281.267591,22.5246416 281.325394,21.5969395 280.019144,21.4513843 C278.714028,21.3063954 278.283334,22.0262425 278.251032,22.5178453 C278.219863,23.0088818 278.564985,23.6517034 279.788496,23.7326933" id="Fill-51" fill="#FFFFFF" mask="url(#mask-2)"></path>
                        <path d="M281.691711,23.9558969 C281.691144,23.6155129 284.201637,23.6704501 284.214671,23.9270124 C284.228272,24.184141 283.915452,25.4216436 283.915452,25.4216436 C283.915452,25.4216436 285.013155,24.1076821 286.370975,24.4758178 C287.727661,24.8439536 287.159825,31.0099445 287.037984,31.162296 C286.914443,31.3140813 284.706003,30.9068665 284.77174,30.6327469 C284.837478,30.3591937 285.146897,26.8596385 284.538259,27.0550336 C283.816279,27.1762353 283.364617,30.087906 283.332882,30.3099202 C283.30058,30.531368 281.176011,30.4197945 281.064371,30.318982 C280.953297,30.217603 281.692278,24.2962809 281.691711,23.9558969" id="Fill-52" fill="#FFFFFF" mask="url(#mask-2)"></path>
                        <path d="M260.468581,20.7344257 C260.496916,20.3963072 262.662287,20.5435615 262.65152,20.7989911 C262.640186,21.054987 262.467341,21.8609212 262.457141,21.9566365 C262.493976,22.0359273 263.371232,21.0238371 264.512005,21.4395473 C265.652211,21.8552575 265.813154,22.7682342 265.778019,22.8458259 C265.698114,23.0225311 264.11758,24.4503315 264.006506,24.209061 C263.688019,23.5237621 263.107715,23.4994085 262.684955,23.7508736 C261.923873,24.2084946 261.437076,26.9055139 261.390039,27.1241299 C261.34357,27.3433123 259.517087,27.1541471 259.429248,27.04937 C259.341976,26.9440265 260.440246,21.0731106 260.468581,20.7344257" id="Fill-53" fill="#FFFFFF" mask="url(#mask-2)"></path>
                        <path d="M293.814955,26.4832338 C294.086406,26.6503108 292.910498,27.9835287 292.641314,27.8493007 C292.373264,27.7162055 291.109517,27.0864101 290.820498,27.5797121 C290.53148,28.0718813 293.715782,28.7192338 293.605842,30.2897576 C293.495335,31.8489542 291.862098,32.3598134 290.626119,32.3009117 C289.39014,32.2420099 287.844742,31.5289593 287.65433,31.4491021 C287.359645,31.3279005 287.730268,29.2125358 288.049322,29.3337374 C288.369509,29.4543726 290.406805,30.7003706 290.735493,30.2172632 C291.06418,29.7347222 288.777535,29.1054932 288.234634,28.0577222 C287.766537,27.1509755 288.189297,26.255556 289.583386,25.8726948 C291.262526,25.4116756 293.544071,26.3161568 293.814955,26.4832338" id="Fill-54" fill="#FFFFFF" mask="url(#mask-2)"></path>
                        <path d="M274.819307,23.5844762 C275.65066,23.6031662 276.706427,23.8812503 277.159789,24.6871844 C277.681156,25.6137538 277.167156,29.2894478 277.099719,29.4514276 C277.032281,29.6139737 275.088491,29.4355694 275.081124,29.3007751 C275.073757,29.1659807 275.153095,28.7797214 275.136661,28.7740578 C275.067523,28.7497042 274.91508,29.1014154 273.788475,29.1325653 C272.528128,29.1676798 271.66844,28.2949149 271.799348,27.2788602 C271.999394,25.7224954 274.881078,25.8397325 275.224499,25.8363343 C275.264169,25.7355218 275.304405,25.1125228 274.406181,25.1482036 C274.013456,25.1640618 273.280142,25.4942513 273.095397,25.4551722 C272.951455,25.425155 272.65847,24.0018855 272.735541,23.8767194 C272.812046,23.7521196 273.987954,23.5657862 274.819307,23.5844762 Z M275.175763,27.0636424 C275.175763,27.0636424 274.043491,27.1950385 274.062759,27.494078 C274.082593,27.7936839 275.141761,27.7228886 275.141761,27.7228886 L275.175763,27.0636424 Z" id="Fill-55" fill="#FFFFFF" mask="url(#mask-2)"></path>
                        <path d="M256.651101,20.9661814 C257.482454,20.9848713 258.538221,21.2629554 258.991584,22.0688896 C259.51295,22.9960253 259.000084,26.671153 258.93208,26.8331327 C258.865209,26.9956788 256.920852,26.8172746 256.912918,26.6824802 C256.905551,26.5476859 256.985456,26.1614265 256.969022,26.1557629 C256.899884,26.1314093 256.746874,26.4831206 255.621403,26.5142705 C254.359922,26.549385 253.500801,25.6771864 253.631709,24.6611317 C253.831755,23.1042006 256.713439,23.2214377 257.056294,23.2180395 C257.09653,23.117227 257.137332,22.494228 256.237975,22.5299088 C255.84525,22.545767 255.111937,22.8759564 254.927758,22.8374438 C254.783249,22.8068602 254.490831,21.3835907 254.567336,21.2584245 C254.64384,21.1338247 255.820315,20.9474914 256.651101,20.9661814 Z M257.007557,24.4453475 C257.007557,24.4453475 255.875285,24.5767437 255.89512,24.8757832 C255.914388,25.1753891 256.974689,25.1045937 256.974689,25.1045937 L257.007557,24.4453475 Z" id="Fill-56" fill="#FFFFFF" mask="url(#mask-2)"></path>
                        <path d="M251.041028,18.6210999 C252.363145,18.6879307 253.404178,19.0923137 253.59119,20.1910573 C253.777635,21.2892347 252.318376,21.7700766 252.318376,21.7700766 C252.318376,21.7700766 254.001483,22.1416105 253.522619,23.8361678 C253.231901,24.8612843 252.239604,25.4763542 250.606367,25.5539459 C249.227013,25.6185112 247.724117,25.5794322 247.660646,25.5024069 C247.609076,25.4395406 247.611343,24.2150644 247.619277,23.0234373 C247.62041,22.7702732 247.620977,21.5656197 247.654979,21.2156075 C247.662913,21.1329185 247.286622,21.2422265 247.288889,21.1578385 C247.312691,20.202951 247.340459,19.0328456 247.398263,18.9722448 C247.499136,18.8674677 249.193577,18.5276501 251.041028,18.6210999 M250.014729,20.4883978 L249.992628,21.4308253 C249.992628,21.4308253 250.793379,21.1057331 250.782045,20.7891364 C250.770144,20.4725396 250.014729,20.4883978 250.014729,20.4883978 M249.854919,23.0868699 L249.865686,23.9403785 C249.865686,23.9403785 250.96169,23.7585761 250.949789,23.435183 C250.932788,22.985491 249.854919,23.0868699 249.854919,23.0868699" id="Fill-57" fill="#FFFFFF" mask="url(#mask-2)"></path>
                        <path d="M250.911026,29.7160322 C251.316219,30.0128063 253.422086,28.9185935 253.251508,28.4717333 C253.080931,28.0254395 252.684239,26.9340586 249.831458,26.8893159 C246.97981,26.8440069 245.15616,28.9304871 245.136892,30.964862 C244.764002,33.4472298 246.434642,35.230706 248.819327,35.5252146 C251.202878,35.8185905 254.233038,34.8580393 254.040359,30.6392034 C253.577929,30.3429957 250.118776,30.3073149 249.770254,30.3084476 C249.421165,30.3095803 249.110612,32.3439552 249.692615,32.3915297 C250.274052,32.4413696 250.504134,32.390397 250.504134,32.390397 C250.504134,32.390397 250.061539,33.3390545 249.421732,33.3407536 C248.781357,33.3418863 248.562044,31.9027587 248.571111,30.9597647 C248.580178,30.0173372 248.939468,28.9746634 249.638212,28.9236908 C250.336956,28.8732845 250.506401,29.4192582 250.911026,29.7160322" id="Fill-58" fill="#FFFFFF" mask="url(#mask-2)"></path>
                        <path d="M257.551479,30.3739191 C258.498439,30.4339536 259.689081,30.8009566 260.169078,31.7411187 C260.719914,32.8228715 259.961099,36.989602 259.87666,37.1719708 C259.792788,37.3543396 257.583781,37.0592646 257.582081,36.905214 C257.579814,36.7511633 257.688054,36.3144977 257.669353,36.3065686 C257.592281,36.2754186 257.401302,36.6701735 256.116021,36.6526162 C254.676596,36.6339262 253.737569,35.5980488 253.934215,34.4455007 C254.236268,32.6790154 257.516343,32.9491704 257.907935,32.961064 C257.958371,32.8477915 258.033743,32.1398381 257.006877,32.138139 C256.558616,32.1375726 255.706295,32.4796557 255.498315,32.426984 C255.334538,32.3850732 255.069321,30.7494176 255.161127,30.6100924 C255.254633,30.4707672 256.604518,30.3138847 257.551479,30.3739191 Z M257.794594,34.3588472 C257.794594,34.3588472 256.497412,34.4551289 256.505345,34.797212 C256.513279,35.139295 257.726023,35.1087114 257.726023,35.1087114 L257.794594,34.3588472 Z" id="Fill-59" fill="#FFFFFF" mask="url(#mask-2)"></path>
                        <path d="M285.625988,36.9573194 C285.544949,37.11137 281.812078,37.0649283 281.545728,37.1357236 C281.548562,37.4279668 281.890283,38.2333345 282.630397,38.3466071 C283.238469,38.4394906 283.817639,37.5151866 283.893578,37.3934186 C283.971216,37.2710843 286.015312,38.2610863 286.000012,38.4219333 C285.983577,38.582214 284.448946,40.3039566 282.166268,40.0768452 C279.883589,39.8497337 278.670845,38.0090549 279.238681,35.8919911 C279.802551,33.7907854 281.696471,33.3784734 282.728437,33.4487023 C283.698065,33.5144004 285.979044,34.3888644 285.625988,36.9573194 M282.849144,35.5051653 C282.828743,35.413981 282.731837,34.9852444 282.279608,35.0260225 C281.827379,35.067367 281.620533,35.5425453 281.735007,35.5567044 C281.850048,35.5697307 282.928483,35.5017672 282.849144,35.5051653" id="Fill-60" fill="#FFFFFF" mask="url(#mask-2)"></path>
                        <path d="M261.124936,28.9168378 C261.249611,28.6823636 264.200998,28.3204579 264.227633,28.6925582 C264.254268,29.0652248 263.836608,37.5697274 263.866077,37.8483778 C263.896112,38.128161 261.433789,38.0992765 261.211075,37.7288753 C260.987227,37.3590404 260.998561,29.151312 261.124936,28.9168378" id="Fill-61" fill="#FFFFFF" mask="url(#mask-2)"></path>
                        <path d="M269.886103,35.6697504 C269.823766,36.42811 269.418007,37.5698973 268.367907,37.4435984 C267.317807,37.3172995 267.436247,35.8861009 267.486684,35.5428851 C267.52522,35.2687656 267.7434,33.8823096 268.730596,33.9145923 C269.718926,33.9474413 269.950141,34.9113907 269.886103,35.6697504 M268.517516,31.7737412 C265.172837,31.6491414 264.661671,34.5953603 264.570998,35.1787139 C264.458791,35.9081891 264.288781,38.9563532 267.857874,39.2842772 C271.428668,39.6110685 272.613077,37.1983633 272.707149,35.5825305 C272.800089,33.9666977 271.862196,31.8977747 268.517516,31.7737412" id="Fill-62" fill="#FFFFFF" mask="url(#mask-2)"></path>
                        <path d="M273.744045,31.6670385 C273.733278,31.2796464 276.208635,31.1714711 276.227903,31.4637143 C276.247738,31.7548247 276.154232,32.6915887 276.154232,32.8008967 C276.206369,32.8858511 277.073424,31.6262604 278.419909,31.953618 C279.766962,32.2804093 280.064481,33.2947649 280.035012,33.3876484 C279.966441,33.5983354 278.357005,35.4174924 278.197762,35.1586646 C277.750067,34.4223931 277.088725,34.4677021 276.641596,34.8069534 C275.836312,35.4220233 275.626632,38.5426819 275.60113,38.7975451 C275.576195,39.0524083 273.479962,39.0693992 273.367755,38.9617903 C273.255548,38.8541814 273.755379,32.0538642 273.744045,31.6670385" id="Fill-63" fill="#FFFFFF" mask="url(#mask-2)"></path>
                        <path d="M287.433429,40.6342594 C285.9243,40.1772047 285.435236,41.2425329 285.34343,41.4537862 C285.227822,41.718844 284.886101,42.8640294 286.480235,43.4264276 C288.074937,43.987693 288.822984,43.210077 289.006029,42.6035025 C289.189074,41.9974944 288.942559,41.0913141 287.433429,40.6342594" id="Fill-64" fill="#FFFFFF" mask="url(#mask-2)"></path>
                        <path d="M288.755547,32.5185082 C288.947659,32.3848466 292.258336,33.1596308 292.199399,33.4507412 C292.142162,33.7412853 289.690606,40.0080888 289.658304,40.2284039 C289.625435,40.450418 286.940398,39.5544322 286.783421,39.1959246 C286.625311,38.8379834 288.562868,32.6504707 288.755547,32.5185082" id="Fill-65" fill="#FFFFFF" mask="url(#mask-2)"></path>
                    </g>
                </g>
            </g>
        </g>
    </g>
</svg>